<svg xmlns="http://www.w3.org/2000/svg" viewBox="0 0 241.01 43.21"><defs><style>.cls-1{fill:#231815;}</style></defs><title>Asset 2</title><g id="Layer_2" data-name="Layer 2"><g id="Layer_1-2" data-name="Layer 1"><path class="cls-1" d="M13.22,41.52A21.59,21.59,0,0,1,0,21.6a22.07,22.07,0,0,1,1.69-8.44A22.79,22.79,0,0,1,6.35,6.29a21.27,21.27,0,0,1,6.87-4.6A21.59,21.59,0,0,1,21.6,0,22.08,22.08,0,0,1,30,1.69a22.58,22.58,0,0,1,6.87,4.6,22.59,22.59,0,0,1,4.6,6.87,22.07,22.07,0,0,1,1.69,8.44A21.57,21.57,0,0,1,41.52,30a21.25,21.25,0,0,1-4.6,6.87A22.73,22.73,0,0,1,30,41.52a22,22,0,0,1-8.44,1.69A21.55,21.55,0,0,1,13.22,41.52Zm-2.1-30.4A14.76,14.76,0,1,0,21.6,6.76,14.76,14.76,0,0,0,11.12,11.12Z"/><path class="cls-1" d="M89.56,17.59H99.67a2.84,2.84,0,0,1,2.84,2.84v.44a2.84,2.84,0,0,1-2.84,2.84H89.56a2.84,2.84,0,0,0-2.84,2.84V40.37a2.84,2.84,0,0,1-2.84,2.84H82.81A2.84,2.84,0,0,1,80,40.37V2.84A2.84,2.84,0,0,1,82.81,0h20.3a2.84,2.84,0,0,1,2.84,2.84v.38a2.84,2.84,0,0,1-2.84,2.84H89.56a2.84,2.84,0,0,0-2.84,2.84v5.86A2.84,2.84,0,0,0,89.56,17.59Z"/><path class="cls-1" d="M167.86,40.37A2.84,2.84,0,0,1,165,43.21H145.89a2.84,2.84,0,0,1-2.84-2.84V2.84A2.84,2.84,0,0,1,145.89,0H147a2.84,2.84,0,0,1,2.84,2.84V34.26a2.84,2.84,0,0,0,2.84,2.84H165a2.84,2.84,0,0,1,2.84,2.84Z"/><path class="cls-1" d="M211,41.52A21.58,21.58,0,0,1,197.8,21.6a22.09,22.09,0,0,1,1.69-8.44,22.84,22.84,0,0,1,4.66-6.87A21.28,21.28,0,0,1,211,1.69,21.57,21.57,0,0,1,219.4,0a22.09,22.09,0,0,1,8.45,1.69,22.59,22.59,0,0,1,6.87,4.6,22.56,22.56,0,0,1,4.6,6.87A22,22,0,0,1,241,21.6,21.55,21.55,0,0,1,239.32,30a21.23,21.23,0,0,1-4.6,6.87,22.74,22.74,0,0,1-6.87,4.66,22,22,0,0,1-8.45,1.69A21.53,21.53,0,0,1,211,41.52Zm-2.1-30.4A14.76,14.76,0,1,0,219.4,6.76,14.76,14.76,0,0,0,208.92,11.12Z"/></g></g></svg>