<svg width="469" height="512" viewBox="0 0 469 512" fill="none" xmlns="http://www.w3.org/2000/svg">
<path d="M409.332 239.934C409.332 231.65 402.615 224.934 394.332 224.934C386.047 224.934 379.332 231.65 379.332 239.934C379.332 320.254 313.986 385.6 233.666 385.6C153.346 385.6 88 320.254 88 239.934C88 231.65 81.283 224.934 73 224.934C64.715 224.934 58 231.65 58 239.934C58 331.743 128.799 407.317 218.666 414.954V482H185.467C177.182 482 170.467 488.716 170.467 497C170.467 505.284 177.182 512 185.467 512H281.867C290.15 512 296.867 505.284 296.867 497C296.867 488.716 290.15 482 281.867 482H248.666V414.953C338.533 407.316 409.332 331.742 409.332 239.934Z" fill="#828282"/>
<path d="M233.666 0C189.959 0 154.4 35.559 154.4 79.266V239.934C154.4 283.641 189.959 319.199 233.666 319.199C277.375 319.199 312.934 283.64 312.934 239.933V79.266C312.934 35.559 277.375 0 233.666 0Z" fill="#828282"/>
<rect x="430.339" y="44.9165" width="45.518" height="600.188" rx="22.759" transform="rotate(45 430.339 44.9165)" fill="#828282" stroke="white" stroke-width="8.40351"/>
</svg>
