<svg id="Capa_1" data-name="Capa 1" xmlns="http://www.w3.org/2000/svg" viewBox="0 0 384 512"><defs><style>.cls-1{fill:#8c8c8c;}</style></defs><title>password</title><path class="cls-1" d="M437.33,192h-32V149.33C405.33,67,338.34,0,256,0S106.67,67,106.67,149.33V192h-32A10.66,10.66,0,0,0,64,202.67V469.33A42.71,42.71,0,0,0,106.67,512H405.33A42.71,42.71,0,0,0,448,469.33V202.67A10.66,10.66,0,0,0,437.33,192ZM287.94,414.82a10.67,10.67,0,0,1-10.6,11.84H234.67a10.67,10.67,0,0,1-10.6-11.84l6.73-60.51A42.2,42.2,0,0,1,213.33,320a42.67,42.67,0,1,1,85.33,0,42.2,42.2,0,0,1-17.46,34.31ZM341.33,192H170.67V149.33a85.33,85.33,0,1,1,170.67,0Z" transform="translate(-64 0)"/></svg>