<svg width="123" height="123" viewBox="0 0 123 123" fill="none" xmlns="http://www.w3.org/2000/svg">
<path fill-rule="evenodd" clip-rule="evenodd" d="M28.3921 19.0746C28.9041 18.6745 29.6171 18.6655 30.1484 19.0395L39.6675 25.7388C40.1524 26.0801 40.7916 26.1015 41.3073 25.8091C44.1865 24.1766 47.2827 22.8825 50.5418 21.9808C51.1132 21.8227 51.55 21.3556 51.6515 20.7716L53.6453 9.30373C53.7567 8.66332 54.2675 8.16539 54.9128 8.08664C57.0716 7.82315 59.27 7.6875 61.5 7.6875C63.73 7.6875 65.9284 7.82315 68.0873 8.08664C68.7325 8.1654 69.2434 8.66332 69.3547 9.30373L71.3485 20.7716C71.45 21.3556 71.8868 21.8227 72.4582 21.9808C75.7173 22.8825 78.8135 24.1766 81.6927 25.8091C82.2085 26.1015 82.8476 26.0801 83.3325 25.7389L92.8516 19.0395C93.3829 18.6655 94.0959 18.6745 94.6079 19.0746C98.0806 21.7885 101.212 24.9195 103.925 28.3922C104.326 28.9042 104.335 29.6172 103.961 30.1485L97.2612 39.6676C96.92 40.1525 96.8985 40.7917 97.191 41.3074C98.8234 44.1866 100.117 47.2828 101.019 50.5419C101.177 51.1133 101.644 51.55 102.228 51.6516L113.696 53.6454C114.337 53.7567 114.835 54.2676 114.913 54.9128C115.177 57.0717 115.313 59.27 115.313 61.5C115.313 63.7301 115.177 65.9284 114.913 68.0873C114.835 68.7326 114.337 69.2434 113.696 69.3548L102.228 71.3486C101.644 71.4501 101.177 71.8869 101.019 72.4583C100.117 75.7174 98.8234 78.8135 97.191 81.6927C96.8985 82.2085 96.9199 82.8476 97.2612 83.3325L103.961 92.8516C104.334 93.3829 104.325 94.0959 103.925 94.6078C101.212 98.0806 98.0805 101.212 94.6078 103.925C94.0958 104.326 93.3828 104.335 92.8515 103.961L83.3324 97.2613C82.8475 96.92 82.2084 96.8986 81.6926 97.191C78.8135 98.8234 75.7173 100.118 72.4582 101.019C71.8868 101.177 71.45 101.644 71.3485 102.228L69.3547 113.696C69.2434 114.337 68.7325 114.835 68.0873 114.913C65.9284 115.177 63.73 115.312 61.5 115.312C59.27 115.312 57.0716 115.177 54.9127 114.913C54.2675 114.835 53.7566 114.337 53.6453 113.696L51.6515 102.229C51.55 101.644 51.1132 101.177 50.5418 101.019C47.2827 100.118 44.1866 98.8234 41.3074 97.191C40.7916 96.8986 40.1525 96.92 39.6676 97.2613L30.1485 103.961C29.6172 104.335 28.9042 104.326 28.3922 103.925C24.9195 101.212 21.7885 98.0806 19.0746 94.6079C18.6745 94.0959 18.6655 93.3829 19.0395 92.8516L25.7388 83.3325C26.0801 82.8476 26.1015 82.2085 25.809 81.6927C24.1766 78.8135 22.8825 75.7174 21.9808 72.4583C21.8227 71.8869 21.3556 71.4501 20.7715 71.3486L9.30374 69.3548C8.66333 69.2434 8.16541 68.7326 8.08666 68.0873C7.82315 65.9284 7.6875 63.7301 7.6875 61.5C7.6875 59.27 7.82315 57.0717 8.08664 54.9128C8.16539 54.2676 8.66331 53.7567 9.30372 53.6454L20.7715 51.6516C21.3556 51.5501 21.8227 51.1133 21.9808 50.5419C22.8825 47.2827 24.1766 44.1866 25.809 41.3074C26.1015 40.7916 26.08 40.1525 25.7388 39.6676L19.0394 30.1485C18.6655 29.6172 18.6745 28.9042 19.0746 28.3922C21.7884 24.9195 24.9194 21.7885 28.3921 19.0746ZM82 61.5C82 72.8219 72.8218 82 61.5 82C50.1782 82 41 72.8219 41 61.5C41 50.1782 50.1782 41 61.5 41C72.8218 41 82 50.1782 82 61.5Z" fill="black"/>
</svg>
