<svg width="55" height="55" viewBox="0 0 55 55" fill="none" xmlns="http://www.w3.org/2000/svg">
<path d="M31.9623 2.01408C31.3243 1.70975 30.5727 1.79042 30.0227 2.23408L12.188 16.5011H3.66667C1.64633 16.5011 0 18.1474 0 20.1677V34.8344C0 36.8584 1.64633 38.5011 3.66667 38.5011H12.188L30.019 52.7681C30.3527 53.0321 30.7597 53.1677 31.1667 53.1677C31.438 53.1677 31.7093 53.1054 31.9623 52.9844C32.5967 52.6801 33 52.0384 33 51.3344V3.66775C33 2.96375 32.5967 2.32208 31.9623 2.01408Z" fill="#010101"/>
<path d="M42.2804 14.5356C41.5581 13.8243 40.3994 13.8353 39.6881 14.5503C38.9767 15.2726 38.9841 16.4313 39.7027 17.1463C42.4747 19.8816 44.0001 23.5593 44.0001 27.501C44.0001 31.4426 42.4747 35.1203 39.7027 37.8556C38.9841 38.5633 38.9767 39.7256 39.6881 40.448C40.0474 40.811 40.5204 40.9906 40.9897 40.9906C41.4554 40.9906 41.9211 40.8146 42.2804 40.459C45.7564 37.038 47.6667 32.4326 47.6667 27.501C47.6667 22.5693 45.7564 17.964 42.2804 14.5356Z" fill="#010101"/>
<path d="M47.4539 9.36931C46.7316 8.65431 45.5729 8.66164 44.8579 9.38031C44.1466 10.099 44.1539 11.2613 44.8689 11.9726C49.0379 16.105 51.3333 21.6196 51.3333 27.501C51.3333 33.3823 49.0379 38.8933 44.8689 43.0256C44.1539 43.7406 44.1466 44.903 44.8579 45.6216C45.2209 45.981 45.6903 46.1606 46.1596 46.1606C46.6253 46.1606 47.0946 45.9846 47.4539 45.629C52.3233 40.8073 54.9999 34.3686 54.9999 27.501C54.9999 20.6333 52.3233 14.1946 47.4539 9.36931Z" fill="#010101"/>
</svg>
