<svg width="469" height="470" viewBox="0 0 469 470" fill="none" xmlns="http://www.w3.org/2000/svg">
<path d="M278.363 12.5404C272.806 9.88995 266.26 10.5925 261.47 14.4564L106.146 138.709H31.9333C14.3381 138.709 0 153.047 0 170.642V298.376C0 316.003 14.3381 330.309 31.9333 330.309H106.146L261.438 454.562C264.344 456.861 267.889 458.042 271.433 458.042C273.796 458.042 276.159 457.499 278.363 456.446C283.887 453.795 287.4 448.207 287.4 442.076V26.9423C287.4 20.8111 283.887 15.2228 278.363 12.5404Z" fill="#828282"/>
<rect x="430.339" y="6.91654" width="45.518" height="600.188" rx="22.759" transform="rotate(45 430.339 6.91654)" fill="#828282" stroke="white" stroke-width="8.40351"/>
</svg>
