<svg id="Capa_1" data-name="Capa 1" xmlns="http://www.w3.org/2000/svg" viewBox="0 0 512 512"><defs><style>.cls-1{fill:#8c8c8c;}</style></defs><title>token</title><path class="cls-1" d="M463.75,48.25c-64.34-64.34-169-64.33-233.35,0a165,165,0,0,0-40.18,167.46L4.4,401.54A15,15,0,0,0,0,412.14V497a15,15,0,0,0,15,15H99.86a15,15,0,0,0,10.61-4.39l21.21-21.23A15,15,0,0,0,136,474l-2.64-22.79,31.58-3a15,15,0,0,0,13.52-13.52l3-31.58,22.79,2.65a14.76,14.76,0,0,0,11.7-3.69,15,15,0,0,0,5-11.21V363h27.42A15,15,0,0,0,259,358.6l38.47-38c58.74,19,122.38,4.93,166.33-39C528.08,217.27,528.08,112.59,463.75,48.25ZM421.31,154.32a45,45,0,1,1,0-63.63A45,45,0,0,1,421.31,154.32Z" transform="translate(0 0)"/></svg>