<svg id="Layer_1" data-name="Layer 1" xmlns="http://www.w3.org/2000/svg" viewBox="0 0 427.16 512"><defs><style>.cls-1{fill:#8c8c8c;}</style></defs><title>user</title><path class="cls-1" d="M252.35,246.63c33.88,0,63.22-12.15,87.2-36.13s36.13-53.3,36.13-87.19S363.52,60.1,339.54,36.12,286.23,0,252.35,0s-63.22,12.15-87.19,36.12S129,89.43,129,123.31s12.16,63.22,36.13,87.2S218.48,246.63,252.35,246.63Z" transform="translate(-42 0)"/><path class="cls-1" d="M468.13,393.7A304.59,304.59,0,0,0,464,361.35a254.89,254.89,0,0,0-8-32.53,160.66,160.66,0,0,0-13.37-30.34,114.48,114.48,0,0,0-20.16-26.28,88.9,88.9,0,0,0-29-18.2,100.1,100.1,0,0,0-37-6.69c-5.23,0-10.28,2.14-20,8.5-6,3.92-13,8.45-20.88,13.46-6.71,4.27-15.79,8.28-27,11.9a104.9,104.9,0,0,1-66.09,0c-11.21-3.62-20.3-7.62-27-11.9-7.77-5-14.8-9.5-20.9-13.47-9.75-6.36-14.81-8.5-20-8.5a100,100,0,0,0-37,6.7,88.83,88.83,0,0,0-29,18.2A114.49,114.49,0,0,0,68.5,298.49a161,161,0,0,0-13.37,30.34,255.5,255.5,0,0,0-8,32.52A303.52,303.52,0,0,0,43,393.71c-.68,9.8-1,20-1,30.23,0,26.73,8.5,48.36,25.25,64.32C83.8,504,105.69,512,132.32,512H378.85c26.63,0,48.51-8,65.06-23.73,16.76-15.95,25.25-37.59,25.25-64.32C469.16,413.63,468.81,403.45,468.13,393.7Z" transform="translate(-42 0)"/></svg>